<svg width="258" height="188" viewBox="0 0 258 188" fill="none" xmlns="http://www.w3.org/2000/svg">
<path d="M0 47.006C11.56 47.0221 16.4553 55.0704 21.6524 63.7212L64.2111 136.701C66.2171 140.343 68.1957 144.746 68.1353 148.868C67.9783 159.603 54.042 163.533 45.7024 163.944C39.5993 164.245 33.5683 162.814 28.1398 160.374L24.7504 164.737C26.7261 173.156 34.5201 183.381 45.2309 183.305C63.8327 183.171 73.6031 166.158 81.0814 152.303L94.9347 126.638L54.7224 57.6802C51.0084 51.5116 57.1055 47.0269 63.5851 46.9877L65.063 41.2734H1.48387L0 47.006Z" fill="url(#paint0_linear_165_10)"/>
<path fill-rule="evenodd" clip-rule="evenodd" d="M120.168 111.047H115.748V122.807H113.388V109.107H122.508V122.807H120.168V111.047ZM128.188 123.087C127.427 123.087 126.791 122.953 126.278 122.687C125.765 122.42 125.351 122.057 125.038 121.597C124.724 121.137 124.498 120.6 124.358 119.987C124.217 119.374 124.148 118.727 124.148 118.047C124.148 117.407 124.214 116.78 124.348 116.167C124.481 115.553 124.708 115.007 125.027 114.527C125.348 114.047 125.771 113.66 126.298 113.367C126.824 113.073 127.481 112.927 128.268 112.927C129.028 112.927 129.671 113.06 130.197 113.327C130.724 113.594 131.148 113.957 131.468 114.417C131.788 114.877 132.018 115.41 132.158 116.017C132.298 116.624 132.368 117.267 132.368 117.947C132.368 118.613 132.298 119.257 132.158 119.877C132.018 120.497 131.788 121.043 131.468 121.517C131.148 121.99 130.721 122.37 130.188 122.657C129.654 122.944 128.988 123.087 128.188 123.087ZM128.268 114.567C127.894 114.567 127.591 114.65 127.358 114.817C127.124 114.983 126.944 115.213 126.818 115.514C126.691 115.814 126.604 116.163 126.558 116.56C126.511 116.96 126.487 117.393 126.487 117.857C126.487 118.403 126.511 118.89 126.558 119.324C126.604 119.753 126.694 120.123 126.828 120.43C126.961 120.737 127.144 120.97 127.378 121.137C127.611 121.303 127.907 121.387 128.268 121.387C128.961 121.387 129.428 121.077 129.668 120.46C129.908 119.84 130.028 118.987 130.028 117.897C130.028 117.43 130.001 116.997 129.948 116.59C129.894 116.187 129.804 115.834 129.678 115.533C129.551 115.233 129.374 115 129.148 114.827C128.921 114.654 128.628 114.567 128.268 114.567ZM137.088 114.907L136.928 117.353C136.901 117.823 136.868 118.24 136.828 118.61C136.788 118.977 136.738 119.307 136.678 119.603C136.618 119.897 136.538 120.163 136.438 120.403C136.338 120.647 136.221 120.867 136.088 121.067H139.648V114.907H137.088ZM134.868 125.687H132.968L132.928 121.107L133.808 121.047C133.981 120.86 134.135 120.667 134.268 120.467C134.401 120.267 134.518 120.027 134.618 119.747C134.718 119.467 134.798 119.127 134.858 118.727C134.918 118.327 134.961 117.833 134.988 117.247L135.208 113.207H141.828V121.067C141.988 121.08 142.154 121.09 142.328 121.097C142.501 121.104 142.674 121.106 142.848 121.106L142.788 125.686H140.908L140.868 122.806H134.928L134.868 125.687ZM144.108 113.187H150.508V114.967H146.308V122.807H144.108V113.187ZM154.808 123.087C154.048 123.087 153.411 122.953 152.898 122.687C152.385 122.42 151.971 122.057 151.658 121.597C151.345 121.137 151.118 120.6 150.978 119.987C150.838 119.374 150.768 118.727 150.768 118.047C150.768 117.407 150.834 116.78 150.968 116.167C151.101 115.553 151.328 115.007 151.648 114.527C151.968 114.047 152.391 113.66 152.918 113.367C153.445 113.073 154.101 112.927 154.888 112.927C155.648 112.927 156.291 113.06 156.818 113.327C157.345 113.594 157.768 113.957 158.088 114.417C158.408 114.877 158.638 115.41 158.778 116.017C158.918 116.624 158.988 117.267 158.988 117.947C158.988 118.613 158.918 119.257 158.778 119.877C158.638 120.497 158.408 121.043 158.088 121.517C157.768 121.99 157.341 122.37 156.808 122.657C156.275 122.944 155.608 123.087 154.808 123.087ZM154.888 114.567C154.515 114.567 154.211 114.65 153.978 114.817C153.745 114.983 153.565 115.213 153.438 115.514C153.311 115.814 153.225 116.163 153.178 116.56C153.131 116.96 153.108 117.393 153.108 117.857C153.108 118.403 153.131 118.89 153.178 119.324C153.225 119.753 153.315 120.123 153.448 120.43C153.581 120.737 153.765 120.97 153.998 121.137C154.231 121.303 154.528 121.387 154.888 121.387C155.581 121.387 156.048 121.077 156.288 120.46C156.528 119.84 156.648 118.987 156.648 117.897C156.648 117.43 156.621 116.997 156.568 116.59C156.515 116.187 156.425 115.834 156.298 115.533C156.172 115.233 155.995 115 155.768 114.827C155.541 114.654 155.248 114.567 154.888 114.567ZM164.628 122.807H162.448V114.967H159.948V113.187H167.208V114.967H164.628V122.807ZM171.568 123.087C170.808 123.087 170.171 122.953 169.658 122.687C169.145 122.42 168.731 122.057 168.418 121.597C168.105 121.137 167.878 120.6 167.738 119.987C167.598 119.374 167.528 118.727 167.528 118.047C167.528 117.407 167.594 116.78 167.728 116.167C167.861 115.553 168.088 115.007 168.408 114.527C168.728 114.047 169.151 113.66 169.678 113.367C170.205 113.073 170.861 112.927 171.648 112.927C172.408 112.927 173.051 113.06 173.578 113.327C174.105 113.594 174.528 113.957 174.848 114.417C175.168 114.877 175.398 115.41 175.538 116.017C175.678 116.624 175.748 117.267 175.748 117.947C175.748 118.613 175.678 119.257 175.538 119.877C175.398 120.497 175.168 121.043 174.848 121.517C174.528 121.99 174.101 122.37 173.568 122.657C173.035 122.944 172.368 123.087 171.568 123.087ZM171.648 114.567C171.275 114.567 170.971 114.65 170.738 114.817C170.505 114.983 170.325 115.213 170.198 115.514C170.071 115.814 169.985 116.163 169.938 116.56C169.891 116.96 169.868 117.393 169.868 117.857C169.868 118.403 169.891 118.89 169.938 119.324C169.985 119.753 170.075 120.123 170.208 120.43C170.341 120.737 170.525 120.97 170.758 121.137C170.991 121.303 171.288 121.387 171.648 121.387C172.341 121.387 172.808 121.077 173.048 120.46C173.288 119.84 173.408 118.987 173.408 117.897C173.408 117.43 173.381 116.997 173.328 116.59C173.275 116.187 173.185 115.834 173.058 115.533C172.931 115.233 172.755 115 172.528 114.827C172.301 114.654 172.008 114.567 171.648 114.567ZM177.408 122.807V113.187H181.668C182.108 113.187 182.511 113.237 182.878 113.337C183.245 113.437 183.561 113.587 183.828 113.787C184.095 113.987 184.305 114.24 184.458 114.547C184.611 114.854 184.688 115.213 184.688 115.627C184.688 116.027 184.595 116.427 184.408 116.827C184.221 117.227 183.895 117.514 183.428 117.687C184.028 117.833 184.451 118.107 184.698 118.507C184.945 118.907 185.068 119.38 185.068 119.927C185.068 120.34 184.991 120.72 184.838 121.067C184.685 121.413 184.468 121.717 184.188 121.977C183.908 122.237 183.568 122.44 183.168 122.587C182.768 122.733 182.321 122.807 181.828 122.807H177.408ZM182.888 119.857C182.888 119.4 182.751 119.067 182.478 118.86C182.205 118.65 181.835 118.547 181.368 118.547H179.568V121.107H181.468C181.641 121.107 181.811 121.087 181.978 121.047C182.145 121.007 182.295 120.937 182.428 120.833C182.561 120.733 182.671 120.603 182.758 120.44C182.845 120.28 182.888 120.087 182.888 119.857ZM182.508 115.877C182.508 115.687 182.468 115.53 182.388 115.4C182.308 115.273 182.211 115.173 182.098 115.1C181.985 115.023 181.861 114.97 181.728 114.937C181.595 114.903 181.475 114.887 181.368 114.887H179.568V117.067H181.248C181.648 117.067 181.958 116.973 182.178 116.783C182.398 116.597 182.508 116.294 182.508 115.877ZM192.148 116.487L190.308 119.827L188.648 122.807H186.568V113.207H188.648V119.527L188.748 119.567C188.895 119.3 189.031 119.04 189.158 118.787C189.285 118.533 189.422 118.28 189.568 118.027L192.228 113.187V113.207H194.288V122.807H192.228V116.487H192.148ZM200.048 122.807H197.868V114.967H195.368V113.187H202.628V114.967H200.048V122.807ZM205.268 118.567C205.282 118.927 205.311 119.273 205.358 119.607C205.405 119.94 205.508 120.237 205.668 120.497C205.828 120.757 206.051 120.963 206.338 121.117C206.625 121.27 207.015 121.347 207.508 121.347C207.855 121.347 208.241 121.317 208.668 121.257C209.095 121.197 209.588 121.06 210.148 120.847L210.628 122.347C210.148 122.574 209.631 122.753 209.078 122.887C208.525 123.02 207.935 123.087 207.308 123.087C206.401 123.087 205.665 122.953 205.098 122.687C204.531 122.42 204.085 122.057 203.758 121.597C203.431 121.137 203.208 120.607 203.088 120.007C202.968 119.407 202.908 118.767 202.908 118.087C202.908 117.66 202.948 117.15 203.028 116.557C203.108 115.964 203.288 115.397 203.565 114.857C203.845 114.317 204.248 113.857 204.775 113.477C205.298 113.097 206.015 112.907 206.918 112.907C207.848 112.907 208.578 113.073 209.102 113.407C209.628 113.74 210.021 114.173 210.278 114.707C210.538 115.24 210.698 115.847 210.758 116.527C210.818 117.207 210.848 117.887 210.848 118.567H205.268ZM208.608 117.167C208.608 116.807 208.585 116.47 208.538 116.157C208.492 115.843 208.408 115.567 208.288 115.327C208.168 115.087 207.998 114.9 207.778 114.767C207.558 114.634 207.275 114.567 206.928 114.567C206.621 114.567 206.365 114.643 206.158 114.797C205.951 114.95 205.782 115.15 205.648 115.397C205.515 115.643 205.418 115.92 205.358 116.227C205.298 116.533 205.262 116.847 205.248 117.167H208.608ZM215.088 114.987V116.927C215.088 117.873 215.038 118.69 214.938 119.377C214.838 120.064 214.675 120.654 214.448 121.147C214.221 121.64 213.918 122.063 213.538 122.417C213.158 122.77 212.688 123.087 212.128 123.367L211.228 121.867C211.641 121.573 211.968 121.283 212.208 120.997C212.448 120.71 212.635 120.39 212.768 120.037C212.901 119.683 212.988 119.273 213.028 118.807C213.068 118.34 213.088 117.774 213.088 117.107V113.187H219.728V122.807H217.548V114.987H215.088ZM225.668 121.107C225.815 121.107 225.968 121.083 226.128 121.037C226.288 120.99 226.438 120.914 226.578 120.81C226.718 120.703 226.835 120.567 226.928 120.403C227.021 120.237 227.068 120.037 227.068 119.797C227.068 119.347 226.918 119.033 226.618 118.853C226.318 118.677 225.955 118.587 225.528 118.587H223.808V121.107H225.668ZM221.648 113.187H223.808V116.927H226.028C226.375 116.927 226.738 116.967 227.118 117.047C227.498 117.127 227.848 117.274 228.168 117.487C228.488 117.7 228.751 117.994 228.958 118.367C229.165 118.74 229.268 119.22 229.268 119.807C229.268 120.367 229.161 120.837 228.948 121.217C228.735 121.597 228.468 121.903 228.148 122.137C227.828 122.37 227.475 122.54 227.088 122.647C226.701 122.754 226.335 122.807 225.988 122.807H221.648V113.187ZM236.148 118.667H232.828V122.807H230.648V113.187H232.828V116.967H236.148V113.187H238.328V122.807H236.148V118.667ZM243.888 123.087C243.128 123.087 242.491 122.953 241.978 122.687C241.465 122.42 241.051 122.057 240.738 121.597C240.425 121.137 240.198 120.6 240.058 119.987C239.918 119.374 239.848 118.727 239.848 118.047C239.848 117.407 239.915 116.78 240.048 116.167C240.181 115.553 240.408 115.007 240.728 114.527C241.048 114.047 241.471 113.66 241.998 113.367C242.525 113.073 243.182 112.927 243.968 112.927C244.728 112.927 245.371 113.06 245.898 113.327C246.425 113.594 246.848 113.957 247.168 114.417C247.488 114.877 247.718 115.41 247.858 116.017C247.998 116.624 248.068 117.267 248.068 117.947C248.068 118.613 247.998 119.257 247.858 119.877C247.718 120.497 247.488 121.043 247.168 121.517C246.848 121.99 246.421 122.37 245.888 122.657C245.355 122.944 244.688 123.087 243.888 123.087ZM243.968 114.567C243.595 114.567 243.292 114.65 243.058 114.817C242.825 114.983 242.645 115.213 242.518 115.514C242.391 115.814 242.305 116.163 242.258 116.56C242.211 116.96 242.188 117.393 242.188 117.857C242.188 118.403 242.211 118.89 242.258 119.324C242.305 119.753 242.395 120.123 242.528 120.43C242.661 120.737 242.845 120.97 243.078 121.137C243.312 121.303 243.608 121.387 243.968 121.387C244.661 121.387 245.128 121.077 245.368 120.46C245.608 119.84 245.728 118.987 245.728 117.897C245.728 117.43 245.701 116.997 245.648 116.59C245.595 116.187 245.505 115.834 245.378 115.533C245.252 115.233 245.075 115 244.848 114.827C244.622 114.654 244.328 114.567 243.968 114.567ZM251.808 118.567C251.822 118.927 251.851 119.273 251.898 119.607C251.945 119.94 252.048 120.237 252.208 120.497C252.368 120.757 252.591 120.963 252.878 121.117C253.165 121.27 253.555 121.347 254.048 121.347C254.395 121.347 254.781 121.317 255.208 121.257C255.635 121.197 256.128 121.06 256.688 120.847L257.168 122.347C256.688 122.574 256.171 122.753 255.618 122.887C255.065 123.02 254.475 123.087 253.848 123.087C252.941 123.087 252.205 122.953 251.638 122.687C251.071 122.42 250.625 122.057 250.298 121.597C249.971 121.137 249.748 120.607 249.628 120.007C249.508 119.407 249.448 118.767 249.448 118.087C249.448 117.66 249.488 117.15 249.568 116.557C249.648 115.964 249.828 115.397 250.105 114.857C250.385 114.317 250.788 113.857 251.315 113.477C251.838 113.097 252.555 112.907 253.458 112.907C254.388 112.907 255.118 113.073 255.641 113.407C256.168 113.74 256.561 114.173 256.818 114.707C257.078 115.24 257.238 115.847 257.298 116.527C257.358 117.207 257.388 117.887 257.388 118.567H251.808ZM255.148 117.167C255.148 116.807 255.125 116.47 255.078 116.157C255.031 115.843 254.948 115.567 254.828 115.327C254.708 115.087 254.538 114.9 254.318 114.767C254.098 114.634 253.815 114.567 253.468 114.567C253.161 114.567 252.905 114.643 252.698 114.797C252.491 114.95 252.322 115.15 252.188 115.397C252.055 115.643 251.958 115.92 251.898 116.227C251.838 116.533 251.801 116.847 251.788 117.167H255.148ZM117.107 143.257C116.347 143.257 115.711 143.123 115.198 142.856C114.684 142.59 114.271 142.227 113.958 141.767C113.644 141.306 113.417 140.77 113.278 140.157C113.137 139.543 113.068 138.897 113.068 138.217C113.068 137.576 113.134 136.95 113.267 136.337C113.401 135.723 113.628 135.176 113.947 134.696C114.268 134.216 114.691 133.83 115.218 133.537C115.744 133.243 116.401 133.097 117.188 133.097C117.948 133.097 118.591 133.23 119.117 133.496C119.644 133.763 120.068 134.126 120.388 134.586C120.707 135.046 120.938 135.58 121.077 136.187C121.218 136.793 121.288 137.437 121.288 138.117C121.288 138.783 121.218 139.427 121.077 140.047C120.938 140.667 120.707 141.213 120.388 141.687C120.068 142.16 119.641 142.54 119.108 142.827C118.574 143.114 117.908 143.257 117.107 143.257ZM117.188 134.737C116.814 134.737 116.511 134.82 116.277 134.987C116.044 135.153 115.864 135.383 115.738 135.683C115.611 135.983 115.524 136.333 115.478 136.73C115.431 137.13 115.407 137.563 115.407 138.027C115.407 138.573 115.431 139.06 115.478 139.493C115.524 139.923 115.614 140.293 115.748 140.6C115.881 140.907 116.064 141.14 116.297 141.306C116.531 141.473 116.827 141.557 117.188 141.557C117.881 141.557 118.348 141.247 118.588 140.63C118.828 140.01 118.948 139.157 118.948 138.067C118.948 137.6 118.921 137.167 118.868 136.76C118.814 136.356 118.724 136.003 118.598 135.703C118.471 135.403 118.294 135.17 118.067 134.997C117.841 134.823 117.548 134.737 117.188 134.737ZM126.928 142.977H124.748V135.137H122.248V133.357H129.508V135.137H126.928V142.977ZM132.528 135.077L132.368 137.523C132.341 137.993 132.308 138.41 132.268 138.78C132.228 139.146 132.178 139.477 132.118 139.773C132.058 140.067 131.978 140.333 131.878 140.573C131.778 140.817 131.661 141.037 131.528 141.237H135.088V135.077H132.528ZM130.308 145.857H128.408L128.368 141.277L129.248 141.217C129.421 141.03 129.575 140.837 129.708 140.637C129.841 140.437 129.958 140.197 130.058 139.917C130.158 139.637 130.238 139.297 130.298 138.897C130.358 138.497 130.401 138.003 130.428 137.417L130.648 133.377H137.268V141.237C137.428 141.25 137.594 141.26 137.768 141.267C137.941 141.274 138.114 141.276 138.288 141.276L138.228 145.856H136.348L136.308 142.976H130.368L130.308 145.857ZM141.748 138.737C141.761 139.097 141.791 139.443 141.838 139.777C141.885 140.11 141.988 140.407 142.148 140.667C142.308 140.927 142.531 141.133 142.818 141.287C143.105 141.44 143.495 141.517 143.988 141.517C144.334 141.517 144.721 141.487 145.148 141.427C145.575 141.367 146.068 141.23 146.628 141.017L147.108 142.517C146.628 142.743 146.111 142.923 145.558 143.057C145.005 143.19 144.415 143.257 143.788 143.257C142.881 143.257 142.145 143.123 141.578 142.856C141.011 142.59 140.565 142.227 140.238 141.767C139.911 141.306 139.688 140.777 139.568 140.177C139.448 139.577 139.388 138.937 139.388 138.257C139.388 137.83 139.428 137.32 139.508 136.726C139.588 136.133 139.768 135.566 140.045 135.026C140.325 134.487 140.728 134.027 141.255 133.646C141.778 133.267 142.495 133.077 143.398 133.077C144.328 133.077 145.058 133.243 145.581 133.577C146.108 133.91 146.501 134.343 146.758 134.877C147.018 135.41 147.178 136.017 147.238 136.697C147.298 137.377 147.328 138.056 147.328 138.737H141.748ZM145.088 137.336C145.088 136.977 145.065 136.64 145.018 136.327C144.971 136.013 144.888 135.737 144.768 135.497C144.648 135.257 144.478 135.07 144.258 134.936C144.038 134.803 143.755 134.737 143.408 134.737C143.101 134.737 142.845 134.813 142.638 134.967C142.431 135.12 142.261 135.32 142.128 135.566C141.995 135.813 141.898 136.09 141.838 136.396C141.778 136.703 141.741 137.017 141.728 137.336H145.088ZM151.568 135.156V137.096C151.568 138.043 151.518 138.86 151.418 139.547C151.318 140.234 151.155 140.823 150.928 141.317C150.701 141.81 150.398 142.233 150.018 142.587C149.638 142.94 149.168 143.257 148.608 143.537L147.708 142.037C148.121 141.743 148.448 141.453 148.688 141.167C148.928 140.88 149.114 140.56 149.248 140.207C149.381 139.853 149.468 139.443 149.508 138.977C149.548 138.51 149.568 137.943 149.568 137.277V133.357H156.208V142.977H154.028V135.156H151.568ZM160.188 138.737C160.201 139.097 160.231 139.443 160.278 139.777C160.325 140.11 160.428 140.407 160.588 140.667C160.748 140.927 160.971 141.133 161.258 141.287C161.545 141.44 161.935 141.517 162.428 141.517C162.774 141.517 163.161 141.487 163.588 141.427C164.014 141.367 164.508 141.23 165.068 141.017L165.548 142.517C165.068 142.743 164.551 142.923 163.998 143.057C163.445 143.19 162.855 143.257 162.228 143.257C161.321 143.257 160.585 143.123 160.018 142.856C159.451 142.59 159.005 142.227 158.678 141.767C158.351 141.306 158.128 140.777 158.008 140.177C157.888 139.577 157.828 138.937 157.828 138.257C157.828 137.83 157.868 137.32 157.948 136.726C158.028 136.133 158.208 135.566 158.485 135.026C158.765 134.487 159.168 134.027 159.694 133.646C160.218 133.267 160.935 133.077 161.838 133.077C162.768 133.077 163.498 133.243 164.021 133.577C164.548 133.91 164.941 134.343 165.198 134.877C165.458 135.41 165.618 136.017 165.678 136.697C165.738 137.377 165.768 138.056 165.768 138.737H160.188ZM163.528 137.336C163.528 136.977 163.505 136.64 163.458 136.327C163.411 136.013 163.328 135.737 163.208 135.497C163.088 135.257 162.918 135.07 162.698 134.936C162.478 134.803 162.195 134.737 161.848 134.737C161.541 134.737 161.285 134.813 161.078 134.967C160.871 135.12 160.701 135.32 160.568 135.566C160.434 135.813 160.338 136.09 160.278 136.396C160.218 136.703 160.181 137.017 160.168 137.336H163.528ZM172.608 138.837H169.288V142.977H167.108V133.357H169.288V137.137H172.608V133.357H174.788V142.977H172.608V138.837ZM182.028 136.657L180.188 139.996L178.528 142.977H176.448V133.377H178.528V139.697L178.628 139.736C178.775 139.47 178.911 139.21 179.038 138.957C179.164 138.703 179.301 138.45 179.448 138.197L182.108 133.357V133.377H184.168V142.977H182.108V136.657H182.028ZM188.028 138.737C188.041 139.097 188.071 139.443 188.118 139.777C188.165 140.11 188.268 140.407 188.428 140.667C188.588 140.927 188.811 141.133 189.098 141.287C189.385 141.44 189.775 141.517 190.268 141.517C190.614 141.517 191.001 141.487 191.428 141.427C191.854 141.367 192.348 141.23 192.908 141.017L193.388 142.517C192.908 142.743 192.391 142.923 191.838 143.057C191.285 143.19 190.695 143.257 190.068 143.257C189.161 143.257 188.425 143.123 187.858 142.856C187.291 142.59 186.845 142.227 186.518 141.767C186.191 141.306 185.968 140.777 185.848 140.177C185.728 139.577 185.668 138.937 185.668 138.257C185.668 137.83 185.708 137.32 185.788 136.726C185.868 136.133 186.048 135.566 186.325 135.026C186.605 134.487 187.008 134.027 187.534 133.646C188.058 133.267 188.775 133.077 189.678 133.077C190.608 133.077 191.338 133.243 191.861 133.577C192.388 133.91 192.781 134.343 193.038 134.877C193.298 135.41 193.458 136.017 193.518 136.697C193.578 137.377 193.608 138.056 193.608 138.737H188.028ZM191.368 137.336C191.368 136.977 191.345 136.64 191.298 136.327C191.251 136.013 191.168 135.737 191.048 135.497C190.928 135.257 190.758 135.07 190.538 134.936C190.318 134.803 190.035 134.737 189.688 134.737C189.381 134.737 189.125 134.813 188.918 134.967C188.711 135.12 188.541 135.32 188.408 135.566C188.274 135.813 188.178 136.09 188.118 136.396C188.058 136.703 188.021 137.017 188.008 137.336H191.368ZM116.768 155.246L116.607 157.693C116.581 158.163 116.548 158.58 116.508 158.95C116.468 159.316 116.418 159.647 116.358 159.943C116.297 160.237 116.218 160.503 116.118 160.743C116.017 160.986 115.901 161.206 115.768 161.406H119.328V155.246H116.768ZM114.548 166.026H112.648L112.608 161.446L113.487 161.386C113.661 161.2 113.814 161.006 113.947 160.807C114.081 160.607 114.198 160.367 114.297 160.087C114.398 159.806 114.478 159.466 114.537 159.066C114.597 158.667 114.641 158.173 114.667 157.586L114.888 153.546H121.508V161.406C121.667 161.42 121.834 161.43 122.008 161.437C122.181 161.443 122.354 161.446 122.528 161.446L122.468 166.026H120.588L120.548 163.146H114.608L114.548 166.026ZM126.707 155.326V157.266C126.707 158.213 126.658 159.03 126.558 159.717C126.458 160.403 126.294 160.993 126.068 161.486C125.841 161.98 125.538 162.403 125.157 162.756C124.778 163.11 124.307 163.427 123.748 163.707L122.847 162.206C123.261 161.913 123.587 161.623 123.827 161.336C124.067 161.05 124.254 160.73 124.388 160.376C124.521 160.023 124.608 159.613 124.648 159.147C124.688 158.68 124.708 158.113 124.708 157.447V153.526H131.348V163.146H129.168V155.326H126.707ZM135.548 156.507C135.548 156.973 135.684 157.293 135.957 157.467C136.231 157.64 136.567 157.726 136.968 157.726H138.528V155.226H137.027C136.854 155.226 136.681 155.253 136.508 155.307C136.334 155.36 136.177 155.436 136.038 155.536C135.898 155.637 135.781 155.77 135.688 155.936C135.594 156.103 135.548 156.293 135.548 156.507ZM132.828 163.146C133.108 162.586 133.384 162.027 133.658 161.466C133.931 160.906 134.201 160.34 134.468 159.766L135.388 159.066C134.748 158.933 134.254 158.66 133.907 158.246C133.561 157.833 133.388 157.24 133.388 156.467C133.388 155.946 133.484 155.5 133.678 155.126C133.871 154.753 134.127 154.45 134.448 154.217C134.768 153.983 135.138 153.81 135.558 153.697C135.977 153.583 136.408 153.526 136.848 153.526H140.688V163.146H138.528V159.326H136.888L135.107 163.146H132.828ZM153.347 156.826L151.508 160.166L149.848 163.146H147.768V153.546H149.848V159.867L149.947 159.906C150.094 159.64 150.231 159.38 150.357 159.127C150.484 158.873 150.621 158.62 150.768 158.366L153.428 153.526V153.546H155.487V163.146H153.428V156.826H153.347ZM162.668 159.006H159.347V163.146H157.168V153.526H159.347V157.306H162.668V153.526H164.848V163.146H162.668V159.006ZM170.407 163.427C169.647 163.427 169.011 163.293 168.498 163.026C167.984 162.76 167.571 162.397 167.258 161.937C166.944 161.476 166.718 160.94 166.578 160.327C166.437 159.713 166.368 159.066 166.368 158.387C166.368 157.746 166.434 157.12 166.567 156.507C166.701 155.893 166.928 155.346 167.247 154.866C167.568 154.386 167.991 154 168.518 153.706C169.044 153.413 169.701 153.266 170.488 153.266C171.248 153.266 171.891 153.4 172.417 153.666C172.944 153.933 173.368 154.296 173.688 154.756C174.007 155.216 174.238 155.75 174.377 156.357C174.518 156.963 174.588 157.606 174.588 158.286C174.588 158.953 174.518 159.596 174.377 160.217C174.238 160.836 174.007 161.383 173.688 161.857C173.368 162.33 172.941 162.71 172.408 162.996C171.874 163.283 171.208 163.427 170.407 163.427ZM170.488 154.906C170.114 154.906 169.811 154.99 169.577 155.157C169.344 155.323 169.164 155.553 169.038 155.853C168.911 156.153 168.824 156.503 168.778 156.9C168.731 157.3 168.707 157.733 168.707 158.196C168.707 158.743 168.731 159.23 168.778 159.663C168.824 160.093 168.914 160.463 169.048 160.77C169.181 161.076 169.364 161.31 169.598 161.476C169.831 161.643 170.127 161.726 170.488 161.726C171.181 161.726 171.648 161.417 171.888 160.8C172.128 160.18 172.248 159.326 172.248 158.236C172.248 157.77 172.221 157.337 172.168 156.93C172.114 156.526 172.024 156.173 171.898 155.873C171.771 155.573 171.594 155.34 171.367 155.166C171.141 154.993 170.848 154.906 170.488 154.906ZM180.408 161.666C180.861 161.666 181.294 161.62 181.708 161.527C182.121 161.433 182.541 161.313 182.968 161.166L183.428 162.686C182.974 162.913 182.494 163.093 181.988 163.227C181.481 163.36 180.868 163.427 180.148 163.427C179.468 163.427 178.871 163.31 178.358 163.077C177.845 162.843 177.414 162.513 177.068 162.086C176.721 161.66 176.458 161.146 176.277 160.547C176.098 159.946 176.008 159.286 176.008 158.566C176.008 157.766 176.098 157.043 176.277 156.397C176.458 155.75 176.728 155.193 177.088 154.726C177.448 154.26 177.891 153.9 178.418 153.646C178.944 153.393 179.554 153.266 180.247 153.266C180.888 153.266 181.465 153.33 181.978 153.457C182.491 153.583 182.941 153.746 183.328 153.946L182.888 155.446C182.581 155.34 182.211 155.243 181.778 155.157C181.344 155.07 180.914 155.027 180.488 155.027C179.754 155.027 179.218 155.303 178.878 155.857C178.538 156.41 178.368 157.24 178.368 158.346C178.368 158.786 178.398 159.21 178.457 159.616C178.518 160.023 178.621 160.376 178.768 160.677C178.914 160.977 179.121 161.217 179.388 161.397C179.655 161.576 179.994 161.666 180.408 161.666ZM188.428 163.146H186.248V155.307H183.748V153.526H191.008V155.307H188.428V163.146ZM194.008 153.546C194.075 153.719 194.141 153.886 194.208 154.046C194.274 154.206 194.341 154.373 194.408 154.547L195.368 153.926C195.648 153.74 195.918 153.593 196.178 153.486C196.438 153.38 196.728 153.326 197.048 153.326C197.661 153.326 198.164 153.479 198.558 153.786C198.951 154.093 199.261 154.49 199.488 154.976C199.714 155.463 199.875 156.01 199.968 156.617C200.061 157.223 200.108 157.826 200.108 158.427C200.108 158.986 200.055 159.56 199.948 160.146C199.841 160.733 199.661 161.267 199.408 161.747C199.155 162.227 198.814 162.62 198.388 162.926C197.961 163.233 197.428 163.386 196.788 163.386C196.521 163.386 196.174 163.333 195.748 163.227C195.321 163.12 194.888 162.873 194.448 162.487L194.428 162.507V167.126H192.208V153.546H194.008ZM194.448 161.067C194.701 161.24 194.985 161.397 195.298 161.536C195.611 161.677 195.928 161.747 196.248 161.747C196.594 161.747 196.871 161.637 197.078 161.417C197.285 161.197 197.438 160.923 197.538 160.596C197.638 160.27 197.701 159.913 197.728 159.526C197.755 159.14 197.768 158.78 197.768 158.447C197.768 157.353 197.661 156.52 197.448 155.946C197.235 155.373 196.814 155.086 196.188 155.086C195.881 155.086 195.571 155.177 195.258 155.356C194.945 155.536 194.674 155.72 194.448 155.906V161.067Z" fill="#1B1918"/>
<path fill-rule="evenodd" clip-rule="evenodd" d="M209.648 163.046C209.341 163.14 209.024 163.216 208.701 163.276C208.374 163.337 208.088 163.366 207.838 163.366C207.495 163.366 207.238 163.31 207.074 163.196C206.908 163.083 206.784 162.866 206.708 162.546L206.608 162.166L205.568 162.826C204.994 163.2 204.514 163.386 204.128 163.386C203.501 163.386 203.001 163.286 202.628 163.086C202.254 162.886 201.975 162.643 201.788 162.357C201.601 162.07 201.481 161.763 201.428 161.437C201.374 161.11 201.348 160.813 201.348 160.547C201.348 159.92 201.491 159.396 201.778 158.977C202.064 158.557 202.444 158.216 202.918 157.956C203.391 157.696 203.938 157.51 204.558 157.396C205.178 157.283 205.828 157.213 206.508 157.187V156.606C206.508 156.1 206.391 155.72 206.158 155.466C205.925 155.213 205.508 155.086 204.908 155.086C204.468 155.086 204.038 155.13 203.618 155.216C203.198 155.303 202.808 155.4 202.448 155.507L202.028 154.067C202.574 153.8 203.131 153.6 203.698 153.466C204.265 153.333 204.788 153.266 205.268 153.266C205.921 153.266 206.474 153.343 206.925 153.497C207.374 153.65 207.731 153.873 207.995 154.166C208.258 154.46 208.451 154.827 208.568 155.267C208.688 155.706 208.748 156.213 208.748 156.786V161.606H209.648V163.046ZM206.528 158.566C206.261 158.58 205.954 158.606 205.608 158.647C205.261 158.687 204.934 158.77 204.628 158.896C204.321 159.023 204.064 159.203 203.858 159.436C203.651 159.67 203.548 159.98 203.548 160.367C203.548 160.793 203.624 161.123 203.778 161.356C203.931 161.59 204.221 161.706 204.648 161.706C204.781 161.706 204.931 161.68 205.098 161.626C205.265 161.573 205.438 161.503 205.618 161.417C205.798 161.33 205.968 161.236 206.128 161.137C206.288 161.036 206.421 160.94 206.528 160.847V158.566ZM216.388 159.006H213.067V163.146H210.888V153.526H213.067V157.306H216.388V153.526H218.568V163.146H216.388V159.006ZM225.728 159.006H222.407V163.146H220.228V153.526H222.407V157.306H225.728V153.526H227.908V163.146H225.728V159.006ZM240.268 153.506V163.146H238.087V153.506H240.268ZM233.707 161.466C233.854 161.466 234.007 161.443 234.167 161.397C234.328 161.35 234.478 161.273 234.617 161.17C234.757 161.063 234.874 160.923 234.967 160.753C235.061 160.58 235.108 160.376 235.108 160.136C235.108 159.7 234.958 159.393 234.658 159.213C234.357 159.037 233.994 158.946 233.568 158.946H231.847V161.466H233.707ZM229.687 153.546H231.847V157.286H234.068C234.414 157.286 234.777 157.326 235.158 157.406C235.537 157.486 235.887 157.633 236.208 157.846C236.528 158.06 236.791 158.353 236.997 158.726C237.204 159.1 237.307 159.58 237.307 160.166C237.307 160.713 237.201 161.177 236.988 161.556C236.774 161.937 236.508 162.247 236.188 162.487C235.867 162.727 235.514 162.9 235.127 163.007C234.741 163.113 234.374 163.166 234.028 163.166H229.687V153.546ZM245.767 159.647L244.747 161.386L243.668 163.146H241.228L244.567 158.246C244.087 157.46 243.607 156.676 243.127 155.897C242.647 155.116 242.161 154.333 241.667 153.546H244.108L244.948 155.086L245.828 156.766H245.868L246.788 155.067L247.647 153.546H250.108C249.601 154.307 249.094 155.063 248.588 155.816C248.081 156.57 247.574 157.333 247.068 158.106C247.588 158.946 248.111 159.786 248.638 160.626C249.164 161.466 249.681 162.306 250.188 163.146H247.728L246.748 161.386L245.828 159.647H245.767ZM116.928 180.896L117.648 178.536L119.168 173.696H121.368L116.887 187.316H114.727L116.147 182.776L115.288 181.876L112.588 173.696H114.907L116.288 178.736L116.867 180.896H116.928ZM124.388 173.716V176.036C124.388 176.356 124.397 176.646 124.417 176.906C124.437 177.166 124.491 177.386 124.578 177.566C124.664 177.746 124.791 177.883 124.964 177.976C125.137 178.07 125.368 178.116 125.661 178.116C126.044 178.116 126.408 178.02 126.754 177.826C127.097 177.633 127.374 177.463 127.588 177.316V173.716H129.807V183.316H127.608V178.776C127.101 179.203 126.611 179.5 126.137 179.666C125.664 179.833 125.274 179.916 124.968 179.916C124.301 179.916 123.781 179.796 123.408 179.556C123.034 179.316 122.754 179.016 122.568 178.656C122.381 178.296 122.264 177.913 122.217 177.506C122.171 177.1 122.147 176.723 122.147 176.376V173.716H124.388ZM139.588 183.216C139.281 183.31 138.965 183.386 138.641 183.446C138.314 183.506 138.028 183.536 137.778 183.536C137.435 183.536 137.178 183.48 137.014 183.366C136.848 183.253 136.724 183.036 136.648 182.716L136.548 182.336L135.508 182.996C134.934 183.37 134.454 183.556 134.068 183.556C133.441 183.556 132.941 183.456 132.568 183.256C132.194 183.056 131.915 182.813 131.728 182.526C131.541 182.24 131.421 181.933 131.368 181.606C131.314 181.28 131.288 180.983 131.288 180.716C131.288 180.09 131.431 179.566 131.718 179.146C132.005 178.726 132.384 178.386 132.858 178.126C133.331 177.866 133.878 177.68 134.498 177.566C135.118 177.453 135.768 177.383 136.448 177.356V176.776C136.448 176.27 136.331 175.89 136.098 175.636C135.865 175.383 135.448 175.256 134.848 175.256C134.408 175.256 133.978 175.3 133.558 175.386C133.138 175.473 132.748 175.569 132.388 175.676L131.968 174.236C132.514 173.97 133.071 173.77 133.638 173.636C134.205 173.503 134.728 173.436 135.208 173.436C135.861 173.436 136.414 173.513 136.865 173.666C137.314 173.82 137.671 174.043 137.935 174.336C138.198 174.629 138.391 174.996 138.508 175.436C138.628 175.876 138.688 176.383 138.688 176.956V181.776H139.588V183.216ZM136.468 178.736C136.201 178.75 135.894 178.776 135.548 178.816C135.201 178.856 134.874 178.94 134.568 179.066C134.261 179.193 134.004 179.373 133.798 179.606C133.591 179.84 133.488 180.149 133.488 180.536C133.488 180.963 133.564 181.293 133.718 181.526C133.871 181.76 134.161 181.876 134.588 181.876C134.721 181.876 134.871 181.85 135.038 181.796C135.205 181.743 135.378 181.673 135.558 181.586C135.738 181.5 135.908 181.406 136.068 181.306C136.228 181.206 136.361 181.109 136.468 181.016V178.736ZM147.768 181.576H150.228C150.228 180.256 150.224 178.946 150.217 177.646C150.211 176.346 150.208 175.036 150.208 173.716H152.368C152.368 175.023 152.364 176.326 152.357 177.626C152.351 178.926 152.348 180.23 152.348 181.536L153.408 181.596L153.368 186.196H151.508L151.448 183.316H140.948V173.696H143.108V181.576H145.628V173.696H147.768L147.768 181.576ZM160.208 176.996L158.368 180.336L156.708 183.316H154.628V173.716H156.708V180.036L156.808 180.076C156.955 179.81 157.091 179.55 157.218 179.296C157.344 179.043 157.481 178.79 157.628 178.536L160.288 173.696V173.716H162.348V183.316H160.288V176.996H160.208ZM167.708 179.816L166.688 181.556L165.608 183.316H163.168L166.508 178.416C166.028 177.63 165.548 176.846 165.068 176.066C164.588 175.286 164.101 174.503 163.608 173.716H166.048L166.888 175.256L167.768 176.936H167.808L168.728 175.236L169.588 173.716H172.048C171.541 174.476 171.035 175.233 170.528 175.986C170.021 176.74 169.514 177.503 169.008 178.276C169.528 179.116 170.051 179.956 170.578 180.796C171.104 181.636 171.621 182.476 172.128 183.316H169.668L168.688 181.556L167.768 179.816H167.708ZM177.228 181.836C177.681 181.836 178.115 181.79 178.528 181.696C178.941 181.603 179.361 181.483 179.788 181.336L180.248 182.856C179.795 183.083 179.315 183.263 178.808 183.396C178.301 183.53 177.688 183.596 176.968 183.596C176.288 183.596 175.691 183.48 175.178 183.246C174.665 183.013 174.235 182.683 173.888 182.256C173.541 181.83 173.278 181.316 173.098 180.716C172.918 180.116 172.828 179.456 172.828 178.736C172.828 177.936 172.918 177.213 173.098 176.566C173.278 175.92 173.548 175.363 173.908 174.896C174.268 174.43 174.711 174.07 175.238 173.816C175.765 173.563 176.375 173.436 177.068 173.436C177.708 173.436 178.285 173.5 178.798 173.626C179.311 173.753 179.761 173.916 180.148 174.116L179.708 175.616C179.401 175.51 179.031 175.413 178.598 175.326C178.165 175.24 177.735 175.196 177.308 175.196C176.575 175.196 176.038 175.473 175.698 176.026C175.358 176.58 175.188 177.41 175.188 178.516C175.188 178.956 175.218 179.38 175.278 179.786C175.338 180.193 175.441 180.546 175.588 180.846C175.735 181.146 175.941 181.386 176.208 181.566C176.475 181.746 176.815 181.836 177.228 181.836ZM183.568 176.676C183.568 177.143 183.705 177.463 183.978 177.636C184.252 177.81 184.588 177.896 184.988 177.896H186.548V175.396H185.048C184.875 175.396 184.701 175.423 184.528 175.476C184.355 175.53 184.198 175.606 184.058 175.706C183.918 175.806 183.801 175.939 183.708 176.106C183.615 176.273 183.568 176.463 183.568 176.676ZM180.848 183.316C181.128 182.756 181.405 182.196 181.678 181.636C181.951 181.076 182.221 180.51 182.488 179.936L183.408 179.236C182.768 179.103 182.275 178.83 181.928 178.416C181.581 178.003 181.408 177.41 181.408 176.636C181.408 176.116 181.505 175.67 181.698 175.296C181.891 174.923 182.148 174.62 182.468 174.386C182.788 174.153 183.158 173.98 183.578 173.866C183.998 173.753 184.428 173.696 184.868 173.696H188.708V183.316H186.548V179.496H184.908L183.128 183.316H180.848ZM202.848 169.636H205.208C204.635 171.21 204.068 172.776 203.508 174.336C202.948 175.896 202.388 177.463 201.828 179.036C201.481 179.996 201.161 180.773 200.868 181.366C200.575 181.96 200.248 182.42 199.888 182.746C199.528 183.073 199.111 183.293 198.638 183.406C198.165 183.52 197.568 183.583 196.848 183.596L196.688 181.836C197.035 181.783 197.341 181.723 197.608 181.656C197.875 181.589 198.108 181.496 198.308 181.376C198.508 181.256 198.681 181.103 198.828 180.916C198.975 180.73 199.101 180.483 199.208 180.176C199.235 180.11 199.258 180.04 199.278 179.966C199.298 179.893 199.321 179.823 199.348 179.756L198.468 179.076C197.921 177.503 197.378 175.93 196.838 174.356C196.298 172.783 195.748 171.21 195.188 169.636H197.628L198.988 174.176L200.068 177.676H200.148L200.788 175.776L202.848 169.636ZM207.208 173.716C207.275 173.889 207.341 174.056 207.408 174.216C207.475 174.376 207.541 174.543 207.608 174.716L208.568 174.096C208.848 173.909 209.118 173.763 209.378 173.656C209.638 173.55 209.928 173.496 210.248 173.496C210.862 173.496 211.365 173.649 211.758 173.956C212.152 174.263 212.462 174.66 212.688 175.146C212.915 175.633 213.075 176.179 213.168 176.786C213.262 177.393 213.308 177.996 213.308 178.596C213.308 179.156 213.255 179.73 213.148 180.316C213.042 180.903 212.861 181.436 212.608 181.916C212.355 182.396 212.015 182.79 211.588 183.096C211.161 183.403 210.628 183.556 209.988 183.556C209.721 183.556 209.375 183.503 208.948 183.396C208.521 183.29 208.088 183.043 207.648 182.656L207.628 182.676V187.296H205.408V173.716H207.208ZM207.648 181.236C207.902 181.41 208.185 181.566 208.498 181.706C208.812 181.846 209.128 181.916 209.448 181.916C209.795 181.916 210.071 181.806 210.278 181.586C210.485 181.366 210.638 181.093 210.738 180.766C210.838 180.44 210.901 180.083 210.928 179.696C210.955 179.31 210.968 178.949 210.968 178.616C210.968 177.523 210.862 176.69 210.648 176.116C210.435 175.543 210.015 175.256 209.388 175.256C209.081 175.256 208.772 175.346 208.458 175.526C208.145 175.706 207.875 175.89 207.648 176.076V181.236ZM227.388 176.456C227.388 178.216 226.951 179.626 226.078 180.686C225.205 181.746 223.915 182.35 222.208 182.496V183.316H219.848V182.476C218.181 182.356 216.905 181.763 216.018 180.696C215.131 179.63 214.688 178.21 214.688 176.436C214.688 174.676 215.131 173.266 216.018 172.206C216.905 171.146 218.181 170.563 219.848 170.456V169.636H222.208V170.436C223.035 170.476 223.768 170.646 224.408 170.946C225.048 171.246 225.588 171.656 226.028 172.176C226.468 172.696 226.805 173.32 227.038 174.046C227.272 174.773 227.388 175.576 227.388 176.456ZM224.928 176.416C224.928 175.163 224.715 174.156 224.288 173.396C223.861 172.636 223.168 172.229 222.208 172.176V180.696C223.115 180.629 223.795 180.223 224.248 179.476C224.702 178.73 224.928 177.71 224.928 176.416ZM219.848 172.176C218.955 172.256 218.281 172.676 217.828 173.436C217.375 174.196 217.148 175.19 217.148 176.416C217.148 177.67 217.375 178.663 217.828 179.396C218.281 180.13 218.955 180.556 219.848 180.676V172.176ZM236.048 169.636H238.408C237.835 171.21 237.268 172.776 236.708 174.336C236.148 175.896 235.588 177.463 235.028 179.036C234.681 179.996 234.362 180.773 234.068 181.366C233.775 181.96 233.448 182.42 233.088 182.746C232.728 183.073 232.312 183.293 231.838 183.406C231.365 183.52 230.768 183.583 230.048 183.596L229.888 181.836C230.235 181.783 230.541 181.723 230.808 181.656C231.075 181.589 231.308 181.496 231.508 181.376C231.708 181.256 231.881 181.103 232.028 180.916C232.175 180.73 232.301 180.483 232.408 180.176C232.435 180.11 232.458 180.04 232.478 179.966C232.498 179.893 232.521 179.823 232.548 179.756L231.668 179.076C231.121 177.503 230.578 175.93 230.038 174.356C229.498 172.783 228.948 171.21 228.388 169.636H230.828L232.188 174.176L233.268 177.676H233.348L233.988 175.776L236.048 169.636Z" fill="#1B1918"/>
<path d="M129.282 0H129.281C123.462 0.00266667 117.593 2.8516 114.891 8.8456C113.144 12.7197 113.092 17.9831 113.75 22.1827C114.889 29.468 114.133 30.7703 110.807 37.3354C107.966 42.94 105.488 49.1964 105.307 55.5491C105.08 63.5485 108.693 70.6251 114.253 75.7608C115.377 76.7988 112.536 82.7861 126.509 83.9813C128.391 84.1424 130.172 84.1424 132.054 83.9813C146.027 82.7861 143.186 76.7988 144.31 75.7608C149.87 70.6251 153.483 63.5485 153.255 55.5491C153.075 49.1964 150.597 42.94 147.756 37.3354C144.429 30.7703 143.674 29.468 144.813 22.1827C145.47 17.9831 145.419 12.7197 143.672 8.8456C140.97 2.8516 135.1 0.00266667 129.282 0Z" fill="url(#paint1_radial_165_10)"/>
<path fill-rule="evenodd" clip-rule="evenodd" d="M129.281 5.26599H129.284C129.308 5.83959 129.597 6.37172 130.055 6.75425L130.059 6.76093L130.076 6.77293C132.813 9.0036 136.664 7.75346 139.312 11.0921C140.079 12.5251 140.512 14.1448 140.512 15.8599C140.512 21.71 135.484 26.4524 129.281 26.4524C123.079 26.4524 118.051 21.71 118.051 15.8599C118.051 14.1476 118.482 12.5309 119.246 11.0994C121.897 7.75505 125.765 8.99425 128.485 6.77425L128.504 6.76093L128.508 6.75425C128.966 6.37185 129.243 5.83904 129.278 5.26638L129.281 5.26599Z" fill="white"/>
<path fill-rule="evenodd" clip-rule="evenodd" d="M123.991 11.4653C125.077 11.4653 125.957 12.3456 125.957 13.4315C125.957 14.5176 125.077 15.3979 123.991 15.3979C122.905 15.3979 122.025 14.5176 122.025 13.4315C122.025 12.3456 122.905 11.4653 123.991 11.4653Z" fill="#BF2615"/>
<path fill-rule="evenodd" clip-rule="evenodd" d="M123.696 11.4992C122.515 12.0057 122.368 13.0123 122.077 13.734C122.032 13.8448 120.731 13.9699 119.994 13.4047C121.956 12.9882 122.128 11.6827 123.696 11.4992Z" fill="#BF2615"/>
<path fill-rule="evenodd" clip-rule="evenodd" d="M124.159 11.5039C125.409 12.0398 125.789 12.5843 125.89 13.4019C125.945 13.8518 126.024 13.3121 126.722 14.4537C126.773 14.5365 126.927 14.7282 126.827 14.3438C126.563 13.337 125.844 11.6319 124.159 11.5039Z" fill="#BF2615"/>
<path fill-rule="evenodd" clip-rule="evenodd" d="M134.572 11.4653C133.486 11.4653 132.605 12.3456 132.605 13.4315C132.605 14.5176 133.486 15.3979 134.572 15.3979C135.658 15.3979 136.538 14.5176 136.538 13.4315C136.538 12.3456 135.658 11.4653 134.572 11.4653Z" fill="#BF2615"/>
<path fill-rule="evenodd" clip-rule="evenodd" d="M134.867 11.4992C136.047 12.0057 136.195 13.0123 136.486 13.734C136.53 13.8448 137.832 13.9699 138.569 13.4047C136.606 12.9882 136.435 11.6827 134.867 11.4992Z" fill="#BF2615"/>
<path fill-rule="evenodd" clip-rule="evenodd" d="M134.403 11.5039C133.153 12.0398 132.774 12.5843 132.673 13.4019C132.618 13.8518 132.539 13.3121 131.84 14.4537C131.79 14.5365 131.636 14.7282 131.736 14.3438C132 13.337 132.718 11.6319 134.403 11.5039Z" fill="#BF2615"/>
<path fill-rule="evenodd" clip-rule="evenodd" d="M122.413 17.3599C123.197 17.3599 123.832 17.9948 123.832 18.7783C123.832 19.5617 123.197 20.1972 122.413 20.1972C121.63 20.1972 120.994 19.5617 120.994 18.7783C120.994 17.9948 121.63 17.3599 122.413 17.3599Z" fill="#C42218"/>
<path fill-rule="evenodd" clip-rule="evenodd" d="M136.149 17.3599C136.933 17.3599 137.568 17.9948 137.568 18.7783C137.568 19.5617 136.933 20.1972 136.149 20.1972C135.366 20.1972 134.731 19.5617 134.731 18.7783C134.731 17.9948 135.366 17.3599 136.149 17.3599Z" fill="#C42218"/>
<path fill-rule="evenodd" clip-rule="evenodd" d="M129.292 20.6524C129.534 20.6591 129.733 20.4426 130.072 20.4447C130.892 20.4514 131.513 21.5416 131.6 21.6978C131.6 22.6442 130.563 23.4116 129.283 23.4116C128.004 23.4116 126.967 22.6442 126.967 21.6978C126.894 21.44 127.81 20.4344 128.566 20.4091C128.907 20.3971 128.99 20.6447 129.292 20.6524Z" fill="#C82119"/>
<path fill-rule="evenodd" clip-rule="evenodd" d="M126.33 21.3928C127.201 22.9948 131.335 22.8875 132.23 21.3995C132.288 21.2464 132.13 21.0942 131.876 21.0591C131.623 21.0242 130.933 21.4175 130.875 21.5707C130.61 22.01 130.164 21.9612 129.281 21.9756C128.401 21.9901 127.948 21.9849 127.681 21.4927C127.629 21.3387 126.953 21.0267 126.698 21.0575C126.443 21.0884 126.278 21.2388 126.33 21.3928Z" fill="#C82119"/>
<path d="M125.405 51.6712C124.879 49.4892 122.536 46.7989 119.986 45.5865C116.796 44.0705 112.127 45.1912 107.777 44.1212C108.656 41.7824 109.704 39.5101 110.806 37.3355C111.667 35.6361 112.356 34.2895 112.884 33.1004C113.37 33.362 113.84 33.6488 114.289 33.9615C118.687 37.0281 126.1 47.1687 125.405 51.6712ZM114.245 27.4349C114.223 29.0519 113.955 30.3615 113.411 31.8196C115.301 33.1799 116.1 32.586 117.749 34.2264C118.864 35.3356 119.131 36.0844 120.066 37.2417C120.767 34.1549 118.868 30.5648 116.924 28.9547C116.231 28.3809 115.284 27.8496 114.245 27.4349ZM116.589 80.9648C117.143 81.4426 117.864 81.9013 118.805 82.3156C119.434 81.2081 119.92 80.0248 120.088 78.9313C121.132 72.1324 114.366 70.6591 114.753 74.7501C114.808 75.3309 115.706 76.8028 116.135 77.9245C116.535 78.9721 116.632 80.0036 116.589 80.9648ZM119.292 82.5171C119.662 82.6621 120.063 82.8008 120.498 82.932C121.427 82.5268 122.406 82.1652 123.454 82.1168C125.551 82.0196 128.11 82.8568 129.815 82.0249C132.559 80.6863 131.273 75.5899 126.557 76.0839C125.795 76.164 124.325 76.7872 124.017 77.2919C124.967 73.7288 126.588 72.2091 125.535 66.1747C124.975 62.9636 123.705 59.1883 118.932 58.7373C119.659 59.5111 119.876 59.6759 119.671 60.9083C119.221 63.6209 118.052 65.8232 119.645 69.2683C120.292 70.6679 121.102 71.9857 121.333 73.8173C121.587 75.8276 121.265 77.4241 120.738 79.7103C120.779 79.6873 120.794 79.6348 120.857 79.6348C121.148 79.6355 122.22 78.0053 122.685 77.6693C121.043 80.9032 120.262 81.5725 119.292 82.5171ZM126.175 74.7486C126.535 74.0532 134.011 66.1305 135.312 69.0993C135.727 70.0472 135.205 71.5088 134.43 72.2787C133.112 73.5879 130.721 73.7209 128.917 73.9688C127.572 74.1537 127.243 74.4591 126.175 74.7486ZM135.253 54.9163C134.694 55.5259 133.982 55.8551 134.035 57.102C134.158 60.008 134.318 62.3676 132.909 65.3813C131.15 69.1409 128.65 70.3303 126.48 72.2136C126.554 71.742 126.809 71.0669 126.801 70.6516C126.784 69.7959 126.533 70.7423 126.578 69.4867C126.616 68.4545 126.797 67.8297 126.756 66.7696C126.57 61.9647 130.165 53.9412 135.253 54.9163ZM118.431 55.5436C115.811 54.7292 114.024 53.0783 113.21 51.3575C112.356 49.5504 111.445 46.5389 108.93 49.4529C109.197 46.6407 112.232 45.9153 114.522 45.9981C119.433 46.1753 123.721 50.6813 125.224 55.0656C125.716 56.498 126.659 60.1312 126.525 61.7595C124.238 58.4872 126.051 57.9137 118.431 55.5436ZM127.012 57.0279C127.273 55.6192 128.149 54.9121 127.93 53.0715C127.316 47.9275 121.796 42.8532 122.319 37.25C122.604 34.2015 124.289 31.6249 126.755 31.6105C125.744 33.5015 125.684 34.0241 126.593 35.2812C128.545 37.9779 130.854 40.2513 131.422 43.318C131.831 45.5336 131.442 48.3701 130.687 50.8204C129.532 54.5659 127.318 56.3661 127.012 57.0279Z" fill="url(#paint2_linear_165_10)"/>
<defs>
<linearGradient id="paint0_linear_165_10" x1="0" y1="41.2734" x2="0" y2="183.305" gradientUnits="userSpaceOnUse">
<stop stop-color="#E30079"/>
<stop offset="0.48" stop-color="#E30016"/>
<stop offset="1" stop-color="#FFEC00"/>
</linearGradient>
<radialGradient id="paint1_radial_165_10" cx="0" cy="0" r="1" gradientUnits="userSpaceOnUse" gradientTransform="translate(129.281 42.0511) scale(37.4154 65.5997)">
<stop stop-color="#E30024"/>
<stop offset="1" stop-color="#BF2615"/>
</radialGradient>
<linearGradient id="paint2_linear_165_10" x1="-668.131" y1="-7.49211" x2="-720.912" y2="-24.6416" gradientUnits="userSpaceOnUse">
<stop stop-color="#FFD21A"/>
<stop offset="0.22" stop-color="#FFD21A"/>
<stop offset="0.38" stop-color="#FEC200"/>
<stop offset="0.58" stop-color="#EC8115"/>
<stop offset="0.81" stop-color="#E84612"/>
<stop offset="1" stop-color="#E84612"/>
</linearGradient>
</defs>
</svg>
